<?xml version="1.0" encoding="UTF-8"?><!DOCTYPE svg PUBLIC "-//W3C//DTD SVG 1.1//EN" "http://www.w3.org/Graphics/SVG/1.1/DTD/svg11.dtd"><svg xmlns="http://www.w3.org/2000/svg">

<!-- <symbol id="default" viewBox="-290 382 30 30">
  <path d="M-266 387h-18c-.6 0-1 .4-1 1v10c0 .6.4 1 1 1h18c.6 0 1-.4 1-1v-10c0-.6-.4-1-1-1zm0 1.9c-.7.7-1.6 1.1-2.5 1.1-1.4 0-2.6-.8-3.2-2h5.7v.9zm-6.7-.9c.6 1.8 2.3 3 4.2 3 .9 0 1.8-.3 2.5-.8v5.1l-2.8-2.8c-.4-.4-1-.4-1.4 0l-2.8 2.8-4.8-4.8c-.4-.4-1-.4-1.4 0l-4.8 4.8V388h11.3zm-11.3 8.7l5.5-5.5 6.8 6.8H-284v-1.3zm13.7 1.3l-2-2 2.8-2.8 3.5 3.5v1.3h-4.3zm4.3.5v-.5.5z"/><path d="M-265.5 385h-19c-1.4 0-2.5 1.1-2.5 2.5v11c0 1.4 1.1 2.5 2.5 2.5h19c1.4 0 2.5-1.1 2.5-2.5v-11c0-1.4-1.1-2.5-2.5-2.5zm1.5 13.5c0 .8-.7 1.5-1.5 1.5h-19c-.8 0-1.5-.7-1.5-1.5v-11c0-.8.7-1.5 1.5-1.5h19c.8 0 1.5.7 1.5 1.5v11zM-268.4 403.4l2.2 2.1-2.2 2.1.8.8 2.8-2.9-2.8-2.9M-281.6 403.4l-.8-.8-2.8 2.9 2.8 2.9.8-.8-2.2-2.1"/><path d="M-278.5 405h-3c-.3 0-.5.2-.5.5s.2.5.5.5h3c.3 0 .5-.2.5-.5s-.2-.5-.5-.5zM-273.5 405h-3c-.3 0-.5.2-.5.5s.2.5.5.5h3c.3 0 .5-.2.5-.5s-.2-.5-.5-.5zM-268 405.5c0-.3-.2-.5-.5-.5h-3c-.3 0-.5.2-.5.5s.2.5.5.5h3c.3 0 .5-.2.5-.5z"/>
</symbol> -->

<symbol id="default" viewBox="-290 382 30 30">
  <path d="M-262.1,403.9C-262.1,403.8-262.1,403.8-262.1,403.9c0.1-0.1,0.1-0.1,0.1-0.2c0,0,0,0,0-0.1v-13.2l0,0c0,0,0,0,0-0.1c0,0,0,0,0-0.1c0,0,0,0,0-0.1l0,0l0,0c0,0,0,0,0-0.1l0,0c0,0,0,0-0.1,0l0,0l-12.2-6.6l0,0h-0.1h-0.1h-0.1h-0.1l0,0l-13,6.6l0,0c0,0,0,0-0.1,0l0,0c0,0,0,0,0,0.1l0,0l0,0l0,0v0.1v0.1l0,0v13.2c0,0,0,0,0,0.1v0.1v0.1c0,0,0,0.1,0.1,0.1c0,0,0.1,0,0.1,0.1c0,0,0,0,0.1,0l12.9,6.6l0,0c0.1,0,0.1,0.1,0.2,0.1l0,0c0.1,0,0.2,0,0.2-0.1l0,0l11.9-6.6l0,0C-262.2,404-262.2,404-262.1,403.9C-262.2,403.9-262.2,403.9-262.1,403.9z M-274.5,384.4l10.9,6l-10.9,6l-11.8-6L-274.5,384.4z M-286.9,391.2l11.9,6.1v12.1l-11.9-6.1V391.2z M-274,397.3l10.9-6.1v12.1l-10.9,6.1V397.3z"/>
</symbol>

</svg>
